<svg xmlns="http://www.w3.org/2000/svg" viewBox="0 0 640 480" width="640" height="480" font-family="Roboto, -apple-system, BlinkMacSystemFont, Helvetica, Arial, sans-serif"><rect width="640" height="480" fill="none"/><text x="320" y="30" text-anchor="middle" font-size="19" fill="#808080" font-weight="bold">Tercera noche: vista semilog-x</text><defs><filter id="glow0" x="-30%" y="-30%" width="160%" height="160%"><feFlood flood-color="#ff6e42" flood-opacity="0.55" result="glowColor"/><feComposite in="glowColor" in2="SourceGraphic" operator="in" result="coloredSource"/><feGaussianBlur in="coloredSource" stdDeviation="3" result="blurred"/><feMerge><feMergeNode in="blurred"/><feMergeNode in="SourceGraphic"/></feMerge></filter><filter id="glow1" x="-30%" y="-30%" width="160%" height="160%"><feFlood flood-color="#7c4dff" flood-opacity="0.55" result="glowColor"/><feComposite in="glowColor" in2="SourceGraphic" operator="in" result="coloredSource"/><feGaussianBlur in="coloredSource" stdDeviation="3" result="blurred"/><feMerge><feMergeNode in="blurred"/><feMergeNode in="SourceGraphic"/></feMerge></filter><filter id="glow2" x="-30%" y="-30%" width="160%" height="160%"><feFlood flood-color="#00b8d4" flood-opacity="0.55" result="glowColor"/><feComposite in="glowColor" in2="SourceGraphic" operator="in" result="coloredSource"/><feGaussianBlur in="coloredSource" stdDeviation="3" result="blurred"/><feMerge><feMergeNode in="blurred"/><feMergeNode in="SourceGraphic"/></feMerge></filter><filter id="glow3" x="-30%" y="-30%" width="160%" height="160%"><feFlood flood-color="#43a047" flood-opacity="0.55" result="glowColor"/><feComposite in="glowColor" in2="SourceGraphic" operator="in" result="coloredSource"/><feGaussianBlur in="coloredSource" stdDeviation="3" result="blurred"/><feMerge><feMergeNode in="blurred"/><feMergeNode in="SourceGraphic"/></feMerge></filter></defs><text x="580" y="91.15" text-anchor="end" font-size="19" fill="#808080">linear_search</text><line x1="588" y1="85.07" x2="608" y2="85.07" stroke="#ff6e42" stroke-width="4"/><text x="580" y="120.15" text-anchor="end" font-size="19" fill="#808080">binary_search</text><line x1="588" y1="114.07" x2="608" y2="114.07" stroke="#7c4dff" stroke-width="4"/><line x1="140" y1="404" x2="608" y2="404" stroke="#808080" stroke-width="1"/><text x="128" y="410" text-anchor="end" font-size="19" fill="#808080">8.00e-08</text><line x1="140" y1="340" x2="608" y2="340" stroke="#808080" stroke-width="1"/><text x="128" y="346" text-anchor="end" font-size="19" fill="#808080">3.54e-05</text><line x1="140" y1="276" x2="608" y2="276" stroke="#808080" stroke-width="1"/><text x="128" y="282" text-anchor="end" font-size="19" fill="#808080">7.08e-05</text><line x1="140" y1="212" x2="608" y2="212" stroke="#808080" stroke-width="1"/><text x="128" y="218" text-anchor="end" font-size="19" fill="#808080">1.06e-04</text><line x1="140" y1="148" x2="608" y2="148" stroke="#808080" stroke-width="1"/><text x="128" y="154" text-anchor="end" font-size="19" fill="#808080">1.42e-04</text><text x="140" y="432" text-anchor="middle" font-size="19" fill="#808080">1</text><text x="173.43" y="432" text-anchor="middle" font-size="19" fill="#808080">2</text><text x="206.86" y="432" text-anchor="middle" font-size="19" fill="#808080">3</text><text x="240.29" y="432" text-anchor="middle" font-size="19" fill="#808080">4</text><text x="273.71" y="432" text-anchor="middle" font-size="19" fill="#808080">5</text><text x="307.14" y="432" text-anchor="middle" font-size="19" fill="#808080">6</text><text x="340.57" y="432" text-anchor="middle" font-size="19" fill="#808080">7</text><text x="374" y="432" text-anchor="middle" font-size="19" fill="#808080">8</text><text x="407.43" y="432" text-anchor="middle" font-size="19" fill="#808080">9</text><text x="440.86" y="432" text-anchor="middle" font-size="19" fill="#808080">10</text><text x="474.29" y="432" text-anchor="middle" font-size="19" fill="#808080">11</text><text x="507.71" y="432" text-anchor="middle" font-size="19" fill="#808080">12</text><text x="541.14" y="432" text-anchor="middle" font-size="19" fill="#808080">13</text><text x="574.57" y="432" text-anchor="middle" font-size="19" fill="#808080">14</text><text x="608" y="432" text-anchor="middle" font-size="19" fill="#808080">15</text><line x1="140" y1="148" x2="140" y2="404" stroke="#808080" stroke-width="2"/><line x1="140" y1="404" x2="608" y2="404" stroke="#808080" stroke-width="2"/><g filter="url(#glow0)"><polyline points="140,404 173.43,403.98 206.86,403.95 240.29,403.86 273.71,403.78 307.14,403.55 340.57,403.06 374,402.04 407.43,399.99 440.86,396.06 474.29,388.02 507.71,372.03 541.14,340.00 574.57,276.03 608,148 " fill="none" stroke="#ff6e42" stroke-width="5" stroke-linecap="round" stroke-linejoin="round"/><circle cx="140" cy="404" r="7" fill="#ff6e42"/><circle cx="173.43" cy="403.98" r="7" fill="#ff6e42"/><circle cx="206.86" cy="403.95" r="7" fill="#ff6e42"/><circle cx="240.29" cy="403.86" r="7" fill="#ff6e42"/><circle cx="273.71" cy="403.78" r="7" fill="#ff6e42"/><circle cx="307.14" cy="403.55" r="7" fill="#ff6e42"/><circle cx="340.57" cy="403.06" r="7" fill="#ff6e42"/><circle cx="374" cy="402.04" r="7" fill="#ff6e42"/><circle cx="407.43" cy="399.99" r="7" fill="#ff6e42"/><circle cx="440.86" cy="396.06" r="7" fill="#ff6e42"/><circle cx="474.29" cy="388.02" r="7" fill="#ff6e42"/><circle cx="507.71" cy="372.03" r="7" fill="#ff6e42"/><circle cx="541.14" cy="340.00" r="7" fill="#ff6e42"/><circle cx="574.57" cy="276.03" r="7" fill="#ff6e42"/><circle cx="608" cy="148" r="7" fill="#ff6e42"/></g><g filter="url(#glow1)"><polyline points="140,397.51 173.43,395.62 206.86,393.63 240.29,391.74 273.71,389.87 307.14,387.97 340.57,386.08 374,384.12 407.43,382.20 440.86,380.30 474.29,378.45 507.71,376.58 541.14,374.50 574.57,372.63 608,370.80 " fill="none" stroke="#7c4dff" stroke-width="5" stroke-linecap="round" stroke-linejoin="round"/><circle cx="140" cy="397.51" r="7" fill="#7c4dff"/><circle cx="173.43" cy="395.62" r="7" fill="#7c4dff"/><circle cx="206.86" cy="393.63" r="7" fill="#7c4dff"/><circle cx="240.29" cy="391.74" r="7" fill="#7c4dff"/><circle cx="273.71" cy="389.87" r="7" fill="#7c4dff"/><circle cx="307.14" cy="387.97" r="7" fill="#7c4dff"/><circle cx="340.57" cy="386.08" r="7" fill="#7c4dff"/><circle cx="374" cy="384.12" r="7" fill="#7c4dff"/><circle cx="407.43" cy="382.20" r="7" fill="#7c4dff"/><circle cx="440.86" cy="380.30" r="7" fill="#7c4dff"/><circle cx="474.29" cy="378.45" r="7" fill="#7c4dff"/><circle cx="507.71" cy="376.58" r="7" fill="#7c4dff"/><circle cx="541.14" cy="374.50" r="7" fill="#7c4dff"/><circle cx="574.57" cy="372.63" r="7" fill="#7c4dff"/><circle cx="608" cy="370.80" r="7" fill="#7c4dff"/></g><text x="374" y="468" text-anchor="middle" font-size="19" fill="#808080" font-weight="bold">Input size (2^x)</text><text x="20" y="276" text-anchor="middle" font-size="19" fill="#808080" font-weight="bold" transform="rotate(-90 20 276)">Execution time (s)</text></svg>